<svg width="65" height="32" viewBox="0 0 65 32" fill="none" xmlns="http://www.w3.org/2000/svg">
<path fill-rule="evenodd" clip-rule="evenodd" d="M32.6666 6C27.1466 6 22.6666 10.48 22.6666 16C22.6666 21.52 27.1466 26 32.6666 26C38.1866 26 42.6666 21.52 42.6666 16C42.6666 10.48 38.1866 6 32.6666 6ZM39.0266 20.83C37.5966 19.09 34.1266 18.5 32.6666 18.5C31.2066 18.5 27.7366 19.09 26.3066 20.83C25.2866 19.49 24.6666 17.82 24.6666 16C24.6666 11.59 28.2566 8 32.6666 8C37.0766 8 40.6666 11.59 40.6666 16C40.6666 17.82 40.0466 19.49 39.0266 20.83ZM29.1666 13.5C29.1666 11.56 30.7266 10 32.6666 10C34.6066 10 36.1666 11.56 36.1666 13.5C36.1666 15.44 34.6066 17 32.6666 17C30.7266 17 29.1666 15.44 29.1666 13.5Z" fill="white"/>
</svg>
