<svg width="64" height="32" viewBox="0 0 64 32" fill="none" xmlns="http://www.w3.org/2000/svg">
<path d="M35.9999 8H37.9999C38.5304 8 39.0391 8.21071 39.4142 8.58579C39.7892 8.96086 39.9999 9.46957 39.9999 10V24C39.9999 24.5304 39.7892 25.0391 39.4142 25.4142C39.0391 25.7893 38.5304 26 37.9999 26H25.9999C25.4695 26 24.9608 25.7893 24.5857 25.4142C24.2107 25.0391 23.9999 24.5304 23.9999 24V10C23.9999 9.46957 24.2107 8.96086 24.5857 8.58579C24.9608 8.21071 25.4695 8 25.9999 8H27.9999" stroke="white" stroke-width="2" stroke-linecap="round" stroke-linejoin="round"/>
<path d="M34.9999 6H28.9999C28.4477 6 27.9999 6.44772 27.9999 7V9C27.9999 9.55228 28.4477 10 28.9999 10H34.9999C35.5522 10 35.9999 9.55228 35.9999 9V7C35.9999 6.44772 35.5522 6 34.9999 6Z" stroke="white" stroke-width="2" stroke-linecap="round" stroke-linejoin="round"/>
</svg>
